Coordinates
version=1
nRows=10
nColumns=27
inDegrees=yes

Units are S.I. units (second, meters, Newtons, ...)
If the header above contains a line with 'inDegrees', this indicates whether rotational values are in degrees (yes) or radians (no).

endheader
time	pelvis_rotation	pelvis_tilt	pelvis_list	pelvis_tx	pelvis_ty	pelvis_tz	hip_flexion_r	hip_adduction_r	hip_rotation_r	knee_angle_r	knee_rotation_r	knee_adduction_r	knee_angle_r_beta	ankle_angle_r	subtalar_angle_r	mtp_angle_r	hip_flexion_l	hip_adduction_l	hip_rotation_l	knee_angle_l	knee_rotation_l	knee_adduction_l	knee_angle_l_beta	ankle_angle_l	subtalar_angle_l	mtp_angle_l
      5.24500000	     15.52168961	    -25.59743429	      2.89061533	     -0.03343528	      0.66987639	     -1.18744419	     76.38289923	    -46.38946554	     -7.89931867	     74.83507488	      0.00000000	      9.30925948	      1.30611845	     11.19968090	      0.00000000	      0.00000000	     86.00071228	    -13.88578839	      9.94076935	     69.93803504	      0.00000000	     -9.84322235	      1.22064898	      8.00781366	      0.00000000	      0.00000000
      5.25000000	     15.49320551	    -25.56753619	      2.89419147	     -0.03303207	      0.67018560	     -1.18741837	     76.28843188	    -46.36241230	     -7.92868319	     74.79080658	      0.00000000	      9.31068399	      1.30534583	     11.18951026	      0.00000000	      0.00000000	     85.90081143	    -13.93471962	      9.89668954	     69.89356314	      0.00000000	     -9.84349878	      1.21987280	      8.00624770	      0.00000000	      0.00000000
      5.25500000	     15.03879100	    -25.47239038	      2.77081899	     -0.03279045	      0.67072321	     -1.18704935	     76.26288156	    -45.70955386	     -7.49897946	     74.66131145	      0.00000000	      8.86705264	      1.30308571	     11.12322223	      0.00000000	      0.00000000	     85.64925785	    -14.42095070	      9.74382615	     69.78715735	      0.00000000	     -9.71116364	      1.21801567	      8.00682890	      0.00000000	      0.00000000
      5.26000000	     15.45049276	    -25.56625260	      2.91827951	     -0.03239599	      0.67072179	     -1.18739842	     76.19729563	    -46.31213849	     -7.93793786	     74.70988592	      0.00000000	      9.31445403	      1.30393349	     11.16743055	      0.00000000	      0.00000000	     85.76730620	    -14.00816274	      9.80878760	     69.80804166	      0.00000000	     -9.84433202	      1.21838017	      8.04209532	      0.00000000	      0.00000000
      5.26500000	     15.08649532	    -25.35349268	      2.90443576	     -0.03207366	      0.67123870	     -1.18714888	     76.12049732	    -45.80424943	     -7.44666895	     74.60097199	      0.00000000	      8.87892953	      1.30203259	     11.09877450	      0.00000000	      0.00000000	     85.37205718	    -14.39865657	      9.56585397	     69.69517394	      0.00000000	     -9.71322632	      1.21641026	      8.02946925	      0.00000000	      0.00000000
      5.27000000	     15.51022074	    -25.49408261	      2.94382076	     -0.03166439	      0.67133255	     -1.18741013	     75.92509989	    -46.36118576	     -8.08618017	     74.60982901	      0.00000000	      9.32805725	      1.30218717	     11.20853609	      0.00000000	      0.00000000	     85.57287952	    -13.99168266	      9.75929817	     69.70411139	      0.00000000	     -9.84492354	      1.21656625	      8.05143659	      0.00000000	      0.00000000
      5.27500000	     15.46995589	    -25.47157470	      3.09513381	     -0.03142999	      0.67153174	     -1.18744698	     76.07500726	    -46.36474939	     -7.82947809	     74.61291139	      0.00000000	      9.33221398	      1.30224097	     11.19739496	      0.00000000	      0.00000000	     85.42809784	    -14.03488285	      9.54734863	     69.64226339	      0.00000000	     -9.84523871	      1.21548679	      8.06073971	      0.00000000	      0.00000000
      5.28000000	     15.49017205	    -25.42995490	      3.12786347	     -0.03110025	      0.67181880	     -1.18746386	     75.97218094	    -46.38701131	     -7.85530032	     74.56665812	      0.00000000	      9.33427867	      1.30143370	     11.20371325	      0.00000000	      0.00000000	     85.31831175	    -14.03244737	      9.49416937	     69.59166789	      0.00000000	     -9.84552953	      1.21460374	      8.07646477	      0.00000000	      0.00000000
      5.28500000	     15.37345275	    -25.45449597	      3.19806558	     -0.03092917	      0.67201538	     -1.18743183	     76.13586379	    -46.28739181	     -7.63601060	     74.55883565	      0.00000000	      9.33305577	      1.30129717	     11.19371057	      0.00000000	      0.00000000	     85.25567259	    -14.16302808	      9.32315995	     69.55392494	      0.00000000	     -9.84626381	      1.21394500	      8.07075954	      0.00000000	      0.00000000
      5.29000000	     14.93841776	    -25.33859005	      3.02962727	     -0.03069949	      0.67258672	     -1.18704130	     76.00763532	    -45.65575824	     -7.32523875	     74.41696266	      0.00000000	      8.90256180	      1.29882102	     11.11841458	      0.00000000	      0.00000000	     84.99794124	    -14.63185482	      9.22655006	     69.43980334	      0.00000000	     -9.71592407	      1.21195320	      8.04194329	      0.00000000	      0.00000000
